<?xml version="1.0" standalone="no"?>
<!DOCTYPE svg PUBLIC "-//W3C//DTD SVG 20010904//EN"
 "http://www.w3.org/TR/2001/REC-SVG-20010904/DTD/svg10.dtd">
<svg version="1.0" xmlns="http://www.w3.org/2000/svg"
 width="900.000000pt" height="198.000000pt" viewBox="0 0 900.000000 198.000000"
 preserveAspectRatio="xMidYMid meet">

<g transform="translate(0.000000,198.000000) scale(0.100000,-0.100000)"
fill="#000000" stroke="none">
<path d="M2026 1953 c9 -50 304 -1935 304 -1944 0 -5 80 -9 180 -9 178 0 180
0 185 23 3 12 38 237 79 501 41 263 77 480 79 482 2 2 39 -222 83 -499 l79
-502 181 -3 180 -2 153 977 c84 538 154 983 155 988 1 6 -74 11 -201 13 -166
2 -203 0 -203 -11 0 -8 -27 -256 -60 -552 -33 -296 -60 -545 -61 -554 0 -9 -2
-11 -5 -6 -4 10 -154 1095 -154 1115 0 6 -51 10 -144 10 l-143 0 -6 -27 c-2
-16 -38 -267 -78 -560 -41 -293 -76 -529 -80 -525 -3 4 -16 106 -28 227 -13
121 -39 369 -59 550 l-37 330 -202 3 -203 2 6 -27z"/>
<path d="M3790 990 l0 -990 377 2 377 3 32 170 c18 94 33 176 33 183 1 9 -46
12 -204 12 l-205 0 0 215 0 215 161 2 160 3 2 168 2 167 -162 0 -163 0 0 235
0 235 216 0 c200 0 215 1 210 18 -3 9 -14 69 -26 132 -11 63 -25 139 -31 168
l-10 52 -385 0 -384 0 0 -990z"/>
<path d="M4745 1968 c-3 -7 -4 -452 -3 -988 l3 -975 376 -3 375 -2 32 177 c18
98 32 181 32 186 0 4 -92 7 -205 7 l-205 0 0 215 0 215 165 0 165 0 0 170 0
170 -165 0 -165 0 0 235 0 235 215 0 c118 0 215 3 214 8 0 4 -15 86 -33 182
l-32 175 -382 3 c-301 2 -384 0 -387 -10z"/>
<path d="M5700 990 l0 -990 200 0 200 0 0 410 0 410 39 0 38 0 36 -187 c20
-104 55 -288 79 -410 l42 -223 219 0 c207 0 218 1 213 18 -4 10 -57 250 -120
534 l-113 516 118 453 c66 250 119 455 119 457 0 1 -92 2 -204 2 l-204 0 -52
-217 c-29 -120 -75 -311 -102 -425 l-50 -208 -29 0 -29 0 0 425 0 425 -200 0
-200 0 0 -990z"/>
<path d="M6875 1968 c-3 -7 -4 -452 -3 -988 l3 -975 182 -3 183 -2 2 402 3
403 84 -325 c46 -179 93 -360 104 -402 l19 -78 204 0 204 0 0 990 0 990 -205
0 -205 0 -1 -387 0 -388 -99 385 c-55 212 -99 386 -100 388 0 1 -83 2 -185 2
-139 0 -187 -3 -190 -12z"/>
<path d="M7990 990 l0 -991 408 3 c309 3 415 7 442 17 60 24 101 61 129 120
l26 56 0 810 0 811 -26 49 c-18 35 -39 59 -74 80 l-48 30 -429 3 -428 3 0
-991z m605 631 c3 -6 5 -289 5 -631 0 -342 -2 -625 -5 -631 -4 -5 -53 -9 -111
-9 l-104 0 0 640 0 640 104 0 c58 0 107 -4 111 -9z"/>
<path d="M33 1875 l-30 -84 76 -3 76 -3 3 -372 2 -373 115 0 115 0 0 375 0
375 75 0 c41 0 75 3 75 7 0 5 -12 43 -26 85 l-26 78 -213 0 -212 0 -30 -85z"/>
<path d="M620 1500 l0 -460 115 0 115 0 2 183 3 182 60 0 60 0 3 -182 2 -183
115 0 115 0 0 460 0 460 -115 0 -115 0 0 -193 c0 -107 -2 -196 -4 -198 -2 -2
-32 -2 -65 -1 l-61 4 0 194 0 194 -115 0 -115 0 0 -460z"/>
<path d="M1300 1500 l0 -460 219 0 219 0 19 83 19 82 -118 3 -118 3 0 99 0
100 95 0 95 0 0 80 0 80 -94 0 -95 0 -3 106 c-2 58 -1 108 1 110 2 2 59 4 126
4 l122 0 -20 85 -21 85 -223 0 -223 0 0 -460z"/>
</g>
</svg>
